<?xml version="1.0" encoding="UTF-8"?>
<svg id="Livello_1" xmlns="http://www.w3.org/2000/svg" version="1.1" viewBox="0 0 996.43 329.93">
  <!-- Generator: Adobe Illustrator 29.8.6, SVG Export Plug-In . SVG Version: 2.1.1 Build 1)  -->
  <defs>
    <style>
      .st0 {
        fill: none;
      }

      .st1 {
        display: none;
        font-family: CottorwayPro-Medium, 'Cottorway Pro';
        font-size: 208.47px;
        font-weight: 500;
        letter-spacing: .06em;
      }
    </style>
  </defs>
  <text class="st1" transform="translate(427.04 235.08)"><tspan x="0" y="0">Satrn</tspan></text>
  <g>
    <path d="M239.76,222.42c-19.77,19.78-3.3,47.79.24,69.3,47.44-20.97,80.55-68.44,80.55-123.65,0-13.22-1.9-25.99-5.44-38.06-19.08,30.18-45.07,62.14-75.34,92.41Z"/>
    <path d="M111.65,302.49c1.22-.6,2.44-1.22,3.67-1.85.08-.04.17-.09.25-.13,1.19-.62,2.39-1.24,3.6-1.89.11-.06.21-.12.32-.17,1.19-.64,2.38-1.28,3.58-1.95.13-.07.26-.14.38-.21,1.18-.66,2.37-1.33,3.57-2.01.14-.08.27-.16.41-.24,1.19-.68,2.38-1.38,3.58-2.09,30.93-18.3,65.62-45.46,99.21-79.05,33.68-33.68,60.9-68.47,79.2-99.47.46-.78.91-1.56,1.36-2.34.37-.64.74-1.27,1.1-1.9.43-.75.84-1.49,1.26-2.23.37-.66.73-1.31,1.09-1.97.39-.72.78-1.43,1.17-2.14.36-.67.72-1.34,1.07-2.01.36-.69.72-1.37,1.08-2.06.36-.69.71-1.38,1.06-2.07.33-.65.66-1.3.98-1.94.36-.73.72-1.46,1.07-2.18.29-.59.58-1.19.86-1.78.39-.83.77-1.64,1.14-2.46.22-.48.45-.96.66-1.44.58-1.29,1.15-2.58,1.69-3.84.02-.05.04-.11.07-.16.52-1.23,1.03-2.44,1.51-3.65.14-.36.28-.71.42-1.06.36-.9.71-1.8,1.04-2.68.15-.41.3-.81.45-1.22.3-.82.6-1.65.88-2.46.15-.42.28-.83.42-1.24.27-.8.53-1.59.78-2.37,7.02-21.95,6.56-39.23-2.97-48.75-15.91-15.91-53.46-6.57-98.3,20.8-13.77-4.73-28.55-7.31-43.93-7.31-74.63,0-135.13,60.5-135.13,135.13,0,15.38,2.57,30.15,7.31,43.93-27.37,44.84-36.71,82.38-20.8,98.3,13.03,13.03,40.56,9.12,74.73-7.74.04-.02.08-.04.12-.06ZM299.14,39.12c11.11,11.11,10.66,31.9.93,57.43-15.56-24.88-38.99-44.34-66.81-54.87,29.37-12.99,53.57-14.86,65.88-2.55ZM129.64,103.89c10.13-10.13,11.08-22.39,11.22-25.26.15,2.86,1.09,15.13,11.22,25.26,10.13,10.13,22.39,11.08,25.26,11.22-2.86.15-15.13,1.09-25.26,11.22-10.13,10.13-11.08,22.39-11.22,25.26-.15-2.86-1.09-15.13-11.22-25.26-10.13-10.13-22.39-11.08-25.26-11.22,2.86-.15,15.13-1.09,25.26-11.22ZM56.46,281.81c-12.31-12.31-10.43-36.51,2.55-65.88,10.54,27.82,29.99,51.25,54.87,66.81-25.53,9.73-46.32,10.18-57.43-.93Z"/>
  </g>
  <polyline class="st0" points="314.44 19.21 324.33 21.13 334.23 23.05"/>
  <g>
    <path d="M435.17,191.7h21.68c1.25,18.14,17.51,24.18,30.23,24.39,13.97,0,27.52-5,27.94-19.6.42-14.18-10.84-20.22-31.48-23.56-30.02-3.96-49.41-15.64-49.41-40.23s21.68-38.77,47.53-38.77,51.28,16.05,51.91,43.15h-21.89c-.83-17.72-16.05-23.97-30.02-23.97s-25.43,7.71-25.64,20.01c0,11.47,9.8,18.76,30.02,21.89,33.35,5,51.49,16.26,50.66,43.36-1.04,26.27-24.81,37.94-50.24,37.32-26.89-.42-50.24-16.47-51.28-43.99Z"/>
    <path d="M563.38,204.41c-.62-21.89,14.38-32.94,38.36-35.02,10.01-.63,23.14-1.04,32.1-1.04-.42-13.97-6.46-24.39-22.72-24.39-11.47,0-22.93,6.05-24.81,18.76h-20.64c2.5-25.43,23.56-36.9,45.24-36.9,30.85-.21,45.86,18.97,45.86,51.7v56.08h-22.72v-22.51c-4.79,11.26-13.97,22.31-30.64,24.39-21.68,2.71-39.19-10.42-40.03-31.06ZM611.32,217.34c13.76-2.92,22.93-16.05,22.51-34.81-7.71-.42-16.89-.21-25.22.42-13.13,1.04-23.14,6.25-22.93,18.76.21,12.92,13.34,18.14,25.64,15.63Z"/>
    <path d="M695.96,194.2v-47.74h-18.76v-19.6h18.76v-30.85h22.93l.21,30.85h32.52v19.6h-32.73v47.11c0,19.6,18.97,27.93,36.69,20.01l3.75,17.93c-26.48,11.47-63.37.21-63.37-37.32Z"/>
    <path d="M786.02,127.9h22.93v14.59c8.13-12.3,25.85-16.47,40.03-13.97l-3.75,21.05c-15.43-4.38-36.27.83-36.27,22.51v61.5h-22.93v-105.69Z"/>
    <path d="M875.66,127.9h22.93v20.43c6.25-14.59,20.43-22.51,34.19-22.72,29.39-.42,47.53,17.09,47.53,50.03v57.95h-22.93v-53.58c0-21.06-10.42-34.61-30.23-34.61-18.35.21-28.56,14.59-28.56,36.9l-.21,51.28h-22.72v-105.69Z"/>
  </g>
</svg>