<svg xmlns="http://www.w3.org/2000/svg" viewBox="40 20 290 300" role="img" aria-label="Satrn">
  <g fill="#0f172a">
    <path
      d="M239.76,222.42c-19.77,19.78-3.3,47.79.24,69.3,47.44-20.97,80.55-68.44,80.55-123.65,0-13.22-1.9-25.99-5.44-38.06-19.08,30.18-45.07,62.14-75.34,92.41Z"
    />
    <path
      d="M111.65,302.49c1.22-.6,2.44-1.22,3.67-1.85.08-.04.17-.09.25-.13,1.19-.62,2.39-1.24,3.6-1.89.11-.06.21-.12.32-.17,1.19-.64,2.38-1.28,3.58-1.95.13-.07.26-.14.38-.21,1.18-.66,2.37-1.33,3.57-2.01.14-.08.27-.16.41-.24,1.19-.68,2.38-1.38,3.58-2.09,30.93-18.3,65.62-45.46,99.21-79.05,33.68-33.68,60.9-68.47,79.2-99.47.46-.78.91-1.56,1.36-2.34.37-.64.74-1.27,1.1-1.9.43-.75.84-1.49,1.26-2.23.37-.66.73-1.31,1.09-1.97.39-.72.78-1.43,1.17-2.14.36-.67.72-1.34,1.07-2.01.36-.69.72-1.37,1.08-2.06.36-.69.71-1.38,1.06-2.07.33-.65.66-1.3.98-1.94.36-.73.72-1.46,1.07-2.18.29-.59.58-1.19.86-1.78.39-.83.77-1.64,1.14-2.46.22-.48.45-.96.66-1.44.58-1.29,1.15-2.58,1.69-3.84.02-.05.04-.11.07-.16.52-1.23,1.03-2.44,1.51-3.65.14-.36.28-.71.42-1.06.36-.9.71-1.8,1.04-2.68.15-.41.3-.81.45-1.22.3-.82.6-1.65.88-2.46.15-.42.28-.83.42-1.24.27-.8.53-1.59.78-2.37,7.02-21.95,6.56-39.23-2.97-48.75-15.91-15.91-53.46-6.57-98.3,20.8-13.77-4.73-28.55-7.31-43.93-7.31-74.63,0-135.13,60.5-135.13,135.13,0,15.38,2.57,30.15,7.31,43.93-27.37,44.84-36.71,82.38-20.8,98.3,13.03,13.03,40.56,9.12,74.73-7.74.04-.02.08-.04.12-.06ZM299.14,39.12c11.11,11.11,10.66,31.9.93,57.43-15.56-24.88-38.99-44.34-66.81-54.87,29.37-12.99,53.57-14.86,65.88-2.55ZM129.64,103.89c10.13-10.13,11.08-22.39,11.22-25.26.15,2.86,1.09,15.13,11.22,25.26,10.13,10.13,22.39,11.08,25.26,11.22-2.86.15-15.13,1.09-25.26,11.22-10.13,10.13-11.08,22.39-11.22,25.26-.15-2.86-1.09-15.13-11.22-25.26-10.13-10.13-22.39-11.08-25.26-11.22,2.86-.15,15.13-1.09,25.26-11.22ZM56.46,281.81c-12.31-12.31-10.43-36.51,2.55-65.88,10.54,27.82,29.99,51.25,54.87,66.81-25.53,9.73-46.32,10.18-57.43-.93Z"
    />
  </g>
</svg>
